<?xml version="1.0" encoding="UTF-8" standalone="no"?>
<!-- Generator: Adobe Illustrator 18.0.0, SVG Export Plug-In . SVG Version: 6.00 Build 0)  -->

<svg
   xmlns:dc="http://purl.org/dc/elements/1.1/"
   xmlns:cc="http://creativecommons.org/ns#"
   xmlns:rdf="http://www.w3.org/1999/02/22-rdf-syntax-ns#"
   xmlns:svg="http://www.w3.org/2000/svg"
   xmlns="http://www.w3.org/2000/svg"
   xmlns:sodipodi="http://sodipodi.sourceforge.net/DTD/sodipodi-0.dtd"
   xmlns:inkscape="http://www.inkscape.org/namespaces/inkscape"
   version="1.1"
   id="Calque_1"
   x="0px"
   y="0px"
   viewBox="0 0 338.9 170"
   enable-background="new 0 0 800 600"
   xml:space="preserve"
   inkscape:version="0.48.5 r10040"
   width="100%"
   height="100%"
   sodipodi:docname="logo_mosstlo.svg"><metadata
     id="metadata43"><rdf:RDF><cc:Work
         rdf:about=""><dc:format>image/svg+xml</dc:format><dc:type
           rdf:resource="http://purl.org/dc/dcmitype/StillImage" /></cc:Work></rdf:RDF></metadata><defs
     id="defs41" /><sodipodi:namedview
     pagecolor="#ffffff"
     bordercolor="#666666"
     borderopacity="1"
     objecttolerance="10"
     gridtolerance="10"
     guidetolerance="10"
     inkscape:pageopacity="0"
     inkscape:pageshadow="2"
     inkscape:window-width="640"
     inkscape:window-height="480"
     id="namedview39"
     showgrid="false"
     fit-margin-top="0"
     fit-margin-left="0"
     fit-margin-right="0"
     fit-margin-bottom="0"
     inkscape:zoom="0.39333333"
     inkscape:cx="165.7"
     inkscape:cy="73.8"
     inkscape:window-x="0"
     inkscape:window-y="27"
     inkscape:window-maximized="0"
     inkscape:current-layer="Calque_1" /><g
     id="g3"
     transform="translate(-234.3,-203.8)"><path
       d="M 357.9,308.4 H 335.7 V 250.5 L 296.1,307 256.5,250.6 v 57.9 h -22.2 v -95 h 23.3 l 38.4,54.9 38.6,-54.9 h 23.1 v 94.9 z"
       id="path5"
       inkscape:connector-curvature="0"
       style="fill:#4d4d4d" /><path
       d="m 573,279.2 c 0,8 -2.4,14.8 -7.2,20.5 -5.2,5.9 -11.7,8.8 -19.6,8.8 h -82.1 v -22.2 h 82.1 c 3.1,0 4.6,-2.4 4.6,-7.1 0,-4.7 -1.5,-7.1 -4.6,-7.1 h -59.7 c -7.9,0 -14.4,-3 -19.6,-8.9 -4.9,-5.5 -7.4,-12.3 -7.4,-20.3 0,-8 2.5,-14.9 7.6,-20.7 5.1,-5.8 11.5,-8.7 19.4,-8.7 h 82.1 v 22.2 h -82.2 c -3.1,0 -4.6,2.4 -4.6,7.2 0,4.7 1.5,7 4.6,7 h 59.8 c 7.9,0 14.4,2.9 19.6,8.8 4.8,5.7 7.2,12.5 7.2,20.5 z"
       id="path7"
       inkscape:connector-curvature="0"
       style="fill:#f7931e" /></g><g
     id="g9"
     transform="translate(-234.3,-203.8)"><g
       id="g11"><g
         id="g13"><g
           id="g15"><path
             stroke-miterlimit="10"
             d="m 446.4,257.5 h 5.9 l 0,-0.4 c -1.5,-22.4 -20.2,-40 -42.7,-40 -17.3,0 -33.2,10.7 -39.7,26.8 l -9.3,-9.3 c 9.5,-18.4 28.3,-29.8 49,-29.8 30.4,0 55.1,24.7 55.1,55.1 0,4.8 -0.6,9.6 -1.9,14.3 l -16.4,-16.7 z"
             id="path17"
             inkscape:connector-curvature="0"
             style="fill:#f7931e;stroke:#f7931e;stroke-width:2;stroke-miterlimit:10" /></g></g><path
         stroke-miterlimit="10"
         d="m 449.3,275.9 c -2.3,5.8 -6,11.1 -10.6,15.4 -0.2,0.2 -0.4,0.4 -0.6,0.5 -3.1,2.8 -6.6,5.1 -10.3,6.8 -0.1,0 -0.1,0.1 -0.2,0.1 -3.9,1.8 -8,3 -12.2,3.5 -0.1,0 -0.3,0 -0.4,0 -1.8,0.2 -3.6,0.4 -5.2,0.4 -1.7,0 -3.4,-0.1 -5.2,-0.3 -0.1,0 -0.3,0 -0.4,0 -4.2,-0.6 -8.4,-1.7 -12.2,-3.5 -0.1,0 -0.1,-0.1 -0.2,-0.1 -3.8,-1.8 -7.2,-4.1 -10.3,-6.8 -0.2,-0.2 -0.4,-0.3 -0.6,-0.5 -7.6,-7 -12.4,-16.6 -13.5,-26.8 l 0,-0.4 h 5.5 l -16.1,-18.4 c -1.3,4.7 -1.9,9.4 -1.9,14.2 0,19.4 9.9,37 26.6,47.1 3.4,2.1 7.1,3.8 11,5.1 5.7,1.9 11.6,2.9 17.5,2.9 6,0 11.9,-1 17.6,-2.9 3.8,-1.3 7.5,-3 11,-5.1 8.7,-5.3 15.7,-12.8 20.4,-21.8 l -9.7,-9.4 z"
         id="path19"
         inkscape:connector-curvature="0"
         style="fill:#4d4d4d;stroke:#4d4d4d;stroke-miterlimit:10" /></g></g><g
     id="g21"
     transform="translate(-234.3,-203.8)"><path
       d="m 235.3,371.8 c 0,-0.9 -0.1,-1.9 -0.3,-3 5.4,2 10.3,3 14.7,3 2.5,0 4.8,-0.3 6.9,-1 2,-0.6 3.6,-1.6 4.8,-2.9 1.1,-1.3 1.7,-2.7 1.7,-4.4 0,-0.8 -0.2,-1.6 -0.5,-2.3 -0.4,-0.7 -0.9,-1.5 -1.7,-2.3 -0.8,-0.8 -2,-1.8 -3.5,-3 -1.5,-1.2 -4.2,-3.1 -8.1,-5.6 l -3.4,-2.2 c -1.2,-0.8 -2.3,-1.6 -3.4,-2.5 -1.1,-0.9 -2,-1.7 -2.7,-2.4 -0.7,-0.7 -1.2,-1.4 -1.6,-2 -0.4,-0.6 -0.6,-1.2 -0.8,-1.9 -0.2,-0.7 -0.3,-1.4 -0.3,-2.2 0,-1.8 0.6,-3.5 1.9,-5 1.2,-1.6 3.1,-2.8 5.6,-3.7 2.5,-0.9 5.6,-1.4 9.4,-1.4 2.6,0 6,0.3 10.1,0.9 0,0.8 0.2,1.8 0.4,2.8 -2.6,-0.6 -4.8,-1.1 -6.5,-1.3 -1.7,-0.2 -3.4,-0.3 -4.9,-0.3 -2.8,0 -5.1,0.4 -6.9,1.1 -1.8,0.7 -3.2,1.7 -4.2,2.9 -1,1.2 -1.5,2.5 -1.5,3.8 0,0.7 0.1,1.4 0.4,2.1 0.3,0.7 0.7,1.4 1.4,2.1 0.6,0.7 1.5,1.5 2.6,2.3 1.1,0.8 2.3,1.8 3.8,2.8 1.5,1.1 3.4,2.4 5.9,4.1 2.4,1.7 4.2,2.8 5.2,3.5 1,0.7 2,1.4 2.9,2.2 0.9,0.8 1.6,1.6 2.2,2.4 0.6,0.8 1,1.6 1.3,2.4 0.3,0.8 0.4,1.7 0.4,2.7 0,2.1 -0.7,3.9 -2,5.5 -1.3,1.6 -3.3,2.8 -6,3.6 -2.6,0.8 -5.6,1.2 -8.8,1.2 -2.1,0 -4.1,-0.1 -6.1,-0.4 -2.4,-0.2 -5,-0.7 -8.4,-1.6 z"
       id="path23"
       inkscape:connector-curvature="0"
       style="fill:#4d4d4d" /><path
       d="m 269.2,373.2 14.3,-21.8 12.5,-19.4 2.6,-4.2 c 0.7,0 1.5,0 2.3,0 0.9,0 1.6,0 2.3,0 l 8.2,18.3 12.5,27.1 c -0.7,0 -1.4,0 -1.9,0 -0.6,0 -1.2,0 -1.9,0 -0.8,-2.1 -2.3,-5.6 -4.5,-10.5 -2.2,-4.9 -3.9,-8.6 -5.1,-11.1 h -24 l -13.4,21.7 c -0.7,0 -1.4,0 -2,0 -0.6,-0.2 -1.2,-0.1 -1.9,-0.1 z m 18.6,-23.8 h 21.8 l -9.1,-19.5 -12.7,19.5 z"
       id="path25"
       inkscape:connector-curvature="0"
       style="fill:#4d4d4d" /><path
       d="m 333,373.2 0.9,-13.3 0.8,-20 0.2,-6.9 c 0,-1.8 0,-3.6 0,-5.1 0.7,0 1.4,0 1.9,0 0.6,0 1.2,0 1.9,0 l -0.8,12 -1,24.7 -0.2,8.6 c -0.7,0 -1.3,0 -1.9,0 -0.6,0 -1.1,0 -1.8,0 z"
       id="path27"
       inkscape:connector-curvature="0"
       style="fill:#4d4d4d" /><path
       d="m 351.1,373.2 1,-13.1 1.2,-26.9 0.1,-5.3 c 0.7,0 1.5,0 2.6,0 1.1,0 1.9,0 2.6,0 1.4,1.8 2.6,3.2 3.5,4.4 0.9,1.1 2.9,3.3 5.9,6.6 l 21.8,24.6 c 2.2,2.5 4.5,5 6.8,7.4 l 1.8,-37.8 0.1,-5.1 c 0.7,0 1.3,0 1.7,0 0.5,0 1,0 1.8,0 l -0.8,10.4 -1.4,28.4 -0.2,6.5 c -1,0 -1.9,0 -2.6,0 -0.7,0 -1.6,0 -2.5,0 l -7.8,-9 -27,-30.3 -3.1,-3.4 c -0.1,1.1 -0.2,2.3 -0.2,3.5 l -1.5,31.1 -0.2,8.1 c -0.7,0 -1.3,0 -1.8,0 -0.5,-0.2 -1,-0.1 -1.8,-0.1 z"
       id="path29"
       inkscape:connector-curvature="0"
       style="fill:#4d4d4d" /><path
       d="m 425.7,373.2 0.6,-8.3 1.7,-35 c -7,0 -13.1,0.1 -18.3,0.3 0.1,-0.9 0.2,-1.7 0.2,-2.4 6.8,0 13.9,0 21.1,0 l 12.1,0 h 6.4 c -0.1,0.9 -0.2,1.7 -0.2,2.4 -3.4,-0.2 -8.7,-0.3 -15.7,-0.3 h -2.5 l -1.7,36.6 c 0,0.5 0,1 0,1.5 v 5.2 c -0.7,0 -1.3,0 -1.9,0 -0.4,-0.1 -1,0 -1.8,0 z"
       id="path31"
       inkscape:connector-curvature="0"
       style="fill:#4d4d4d" /><path
       d="m 448.9,356.9 c 0.1,-0.9 0.2,-1.7 0.2,-2.4 3.1,0.1 6.5,0.2 10.2,0.2 3.6,0 7,-0.1 10.3,-0.2 -0.1,0.9 -0.2,1.7 -0.2,2.4 -3.1,-0.1 -6.5,-0.2 -10.3,-0.2 -3.6,0 -7,0.1 -10.2,0.2 z"
       id="path33"
       inkscape:connector-curvature="0"
       style="fill:#4d4d4d" /><path
       d="m 476.3,373.2 0.9,-10.5 1.1,-23.8 0.3,-11 c 0.7,0 1.3,0 1.9,0 0.6,0 1.2,0 1.9,0 l -1.5,25.9 -0.8,17.3 8.7,0 c 6.2,0 10.5,0 12.9,-0.1 2.4,0 4.6,-0.1 6.9,-0.2 -0.1,0.9 -0.2,1.7 -0.2,2.4 -6,0 -11.1,0 -15.2,0 l -16.9,0 z"
       id="path35"
       inkscape:connector-curvature="0"
       style="fill:#4d4d4d" /><path
       d="m 544.7,327.1 c 4.1,0 7.9,0.5 11.5,1.4 3.6,1 6.8,2.5 9.5,4.6 2.7,2.1 4.6,4.6 5.8,7.4 1.1,2.8 1.7,5.7 1.7,8.8 0,3.4 -0.7,6.7 -2,9.9 -1.3,3.2 -3.3,5.8 -5.9,8 -2.6,2.1 -5.9,3.8 -9.9,4.9 -4,1.1 -8.1,1.7 -12.4,1.7 -4.2,0 -8.2,-0.5 -12,-1.5 -3.8,-1 -7,-2.5 -9.6,-4.5 -2.6,-2 -4.5,-4.4 -5.7,-7.2 -1.2,-2.8 -1.8,-5.8 -1.8,-8.9 0,-3.5 0.7,-6.8 2.2,-10.1 1.5,-3.3 3.6,-6 6.4,-8.1 2.8,-2.1 6.1,-3.7 10,-4.7 3.8,-1.1 7.9,-1.7 12.2,-1.7 z m -0.2,2.1 c -3.9,0 -7.6,0.5 -11.1,1.4 -3.5,0.9 -6.5,2.5 -9,4.6 -2.6,2.1 -4.4,4.6 -5.6,7.5 -1.2,2.9 -1.8,5.9 -1.8,9 0,2.9 0.6,5.8 1.9,8.5 1.2,2.7 3.1,4.9 5.5,6.7 2.4,1.8 5.2,3 8.5,3.8 3.2,0.8 6.7,1.2 10.3,1.2 3.8,0 7.4,-0.4 10.8,-1.3 3.4,-0.9 6.3,-2.3 8.8,-4.3 2.5,-2 4.3,-4.4 5.4,-7.3 1.1,-2.8 1.7,-5.8 1.7,-9 0,-3 -0.5,-5.8 -1.6,-8.5 -1.1,-2.7 -2.8,-5 -5.1,-6.9 -2.4,-1.9 -5.2,-3.3 -8.4,-4.1 -3.2,-0.9 -6.6,-1.3 -10.3,-1.3 z m -7.9,-6.3 c 2.6,-3.5 4.5,-6.1 5.7,-7.9 0.9,0 1.9,0 2.8,0 0.9,0 1.8,0 2.8,0 1.5,2.3 3.3,4.9 5.4,7.9 -0.5,0 -0.9,0 -1.2,0 -0.3,0 -0.7,0 -1.2,0 l -5.7,-6.2 -6.3,6.2 c -0.4,0 -0.8,0 -1.1,0 -0.5,0 -0.8,0 -1.2,0 z"
       id="path37"
       inkscape:connector-curvature="0"
       style="fill:#4d4d4d" /></g></svg>